# xmcd
#
# Track frame offsets: 
#        150
#        12772
#        25990
#        39542
#        54839
#        67535
#        80617
#        90601
#        104185
#        116145
#        128683
#        142173
#        154822
#        165130
#        176663
#        192633
#
# Disc length: 2720 seconds
#
# Revision: 0
# Processed by: cddbd v1.5.2PL0 Copyright (c) Steve Scherf et al.
# Submitted via: ExactAudioCopy v1.0b6
#
DISCID=d10a9e10
DTITLE=Ray Charles - The Genius Sings the Blues
DYEAR=1900
DGENRE=
TTITLE0=Early In The Mornin'
TTITLE1=Hard Times (No ONe Knows Better Than I)
TTITLE2=The Midnight Hour
TTITLE3=The Right Time
TTITLE4=Feelin' Sad
TTITLE5=Ray's Blues
TTITLE6=I'm Movin' On
TTITLE7=I Believe To My Soul
TTITLE8=Nobody Cares
TTITLE9=Mr. Charles' Blues
TTITLE10=Some Day Baby
TTITLE11=I Wonder Who
TTITLE12=Sittin' On Top Of The World
TTITLE13=What Have I Done?
TTITLE14=Let Me Hear You Call My Name
TTITLE15=Confession Blues
EXTD=
EXTT0=
EXTT1=
EXTT2=
EXTT3=
EXTT4=
EXTT5=
EXTT6=
EXTT7=
EXTT8=
EXTT9=
EXTT10=
EXTT11=
EXTT12=
EXTT13=
EXTT14=
EXTT15=
PLAYORDER=
